<svg width="62" height="48" viewBox="0 0 62 48" fill="none" xmlns="http://www.w3.org/2000/svg">
<rect x="56" y="47.4727" width="47.1496" height="5.99999" rx="3" transform="rotate(-90 56 47.4727)" fill="white"/>
<rect x="56" y="47.4727" width="11.7874" height="6" rx="3" transform="rotate(-90 56 47.4727)" fill="#CBE71E"/>
<rect x="42" y="47.4727" width="47.1496" height="5.99994" rx="2.99997" transform="rotate(-90 42 47.4727)" fill="white"/>
<rect x="42" y="47.4727" width="41.2559" height="6" rx="3" transform="rotate(-90 42 47.4727)" fill="#CBE71E"/>
<rect x="28" y="47.4727" width="47.1496" height="6" rx="3" transform="rotate(-90 28 47.4727)" fill="white"/>
<rect x="28" y="47.4727" width="31.4331" height="6" rx="3" transform="rotate(-90 28 47.4727)" fill="#CBE71E"/>
<rect x="14" y="47.4727" width="47.1496" height="6" rx="3" transform="rotate(-90 14 47.4727)" fill="white"/>
<rect x="14" y="47.4727" width="23.5748" height="5.99999" rx="3" transform="rotate(-90 14 47.4727)" fill="#CBE71E"/>
<rect y="47.4727" width="47.1496" height="5.99999" rx="2.99999" transform="rotate(-90 0 47.4727)" fill="white"/>
<rect y="47.4727" width="39.2913" height="6" rx="3" transform="rotate(-90 0 47.4727)" fill="#CBE71E"/>
</svg>
