<svg width="92" height="59" viewBox="0 0 92 59" fill="none" xmlns="http://www.w3.org/2000/svg">
<path d="M46 41V1" stroke="#DDDDDD" stroke-linecap="round" stroke-dasharray="3 3"/>
<path opacity="0.2" d="M10.761 53.382V54.606H12.201V55.164H10.761V56.442H12.381V57H10.077V52.824H12.381V53.382H10.761ZM14.8914 53.64C15.1514 53.64 15.3834 53.694 15.5874 53.802C15.7954 53.91 15.9574 54.07 16.0734 54.282C16.1894 54.494 16.2474 54.75 16.2474 55.05V57H15.5694V55.152C15.5694 54.856 15.4954 54.63 15.3474 54.474C15.1994 54.314 14.9974 54.234 14.7414 54.234C14.4854 54.234 14.2814 54.314 14.1294 54.474C13.9814 54.63 13.9074 54.856 13.9074 55.152V57H13.2234V53.694H13.9074V54.072C14.0194 53.936 14.1614 53.83 14.3334 53.754C14.5094 53.678 14.6954 53.64 14.8914 53.64ZM20.1499 55.266C20.1499 55.39 20.1419 55.502 20.1259 55.602H17.5999C17.6199 55.866 17.7179 56.078 17.8939 56.238C18.0699 56.398 18.2859 56.478 18.5419 56.478C18.9099 56.478 19.1699 56.324 19.3219 56.016H20.0599C19.9599 56.32 19.7779 56.57 19.5139 56.766C19.2539 56.958 18.9299 57.054 18.5419 57.054C18.2259 57.054 17.9419 56.984 17.6899 56.844C17.4419 56.7 17.2459 56.5 17.1019 56.244C16.9619 55.984 16.8919 55.684 16.8919 55.344C16.8919 55.004 16.9599 54.706 17.0959 54.45C17.2359 54.19 17.4299 53.99 17.6779 53.85C17.9299 53.71 18.2179 53.64 18.5419 53.64C18.8539 53.64 19.1319 53.708 19.3759 53.844C19.6199 53.98 19.8099 54.172 19.9459 54.42C20.0819 54.664 20.1499 54.946 20.1499 55.266ZM19.4359 55.05C19.4319 54.798 19.3419 54.596 19.1659 54.444C18.9899 54.292 18.7719 54.216 18.5119 54.216C18.2759 54.216 18.0739 54.292 17.9059 54.444C17.7379 54.592 17.6379 54.794 17.6059 55.05H19.4359Z" fill="#141414"/>
<path opacity="0.2" d="M43.4753 52.83V53.388H41.7053V54.618H43.0853V55.176H41.7053V57H41.0213V52.83H43.4753ZM47.1392 55.266C47.1392 55.39 47.1312 55.502 47.1152 55.602H44.5892C44.6092 55.866 44.7072 56.078 44.8832 56.238C45.0592 56.398 45.2752 56.478 45.5312 56.478C45.8992 56.478 46.1592 56.324 46.3112 56.016H47.0492C46.9492 56.32 46.7672 56.57 46.5032 56.766C46.2432 56.958 45.9192 57.054 45.5312 57.054C45.2152 57.054 44.9312 56.984 44.6792 56.844C44.4312 56.7 44.2352 56.5 44.0912 56.244C43.9512 55.984 43.8812 55.684 43.8812 55.344C43.8812 55.004 43.9492 54.706 44.0852 54.45C44.2252 54.19 44.4192 53.99 44.6672 53.85C44.9192 53.71 45.2072 53.64 45.5312 53.64C45.8432 53.64 46.1212 53.708 46.3652 53.844C46.6092 53.98 46.7992 54.172 46.9352 54.42C47.0712 54.664 47.1392 54.946 47.1392 55.266ZM46.4252 55.05C46.4212 54.798 46.3312 54.596 46.1552 54.444C45.9792 54.292 45.7612 54.216 45.5012 54.216C45.2652 54.216 45.0632 54.292 44.8952 54.444C44.7272 54.592 44.6272 54.794 44.5952 55.05H46.4252ZM48.4963 54.186C48.6123 54.026 48.7703 53.896 48.9703 53.796C49.1743 53.692 49.4003 53.64 49.6483 53.64C49.9403 53.64 50.2043 53.71 50.4403 53.85C50.6763 53.99 50.8623 54.19 50.9983 54.45C51.1343 54.706 51.2023 55 51.2023 55.332C51.2023 55.664 51.1343 55.962 50.9983 56.226C50.8623 56.486 50.6743 56.69 50.4343 56.838C50.1983 56.982 49.9363 57.054 49.6483 57.054C49.3923 57.054 49.1643 57.004 48.9643 56.904C48.7683 56.804 48.6123 56.676 48.4963 56.52V57H47.8123V52.56H48.4963V54.186ZM50.5063 55.332C50.5063 55.104 50.4583 54.908 50.3623 54.744C50.2703 54.576 50.1463 54.45 49.9903 54.366C49.8383 54.278 49.6743 54.234 49.4983 54.234C49.3263 54.234 49.1623 54.278 49.0063 54.366C48.8543 54.454 48.7303 54.582 48.6343 54.75C48.5423 54.918 48.4963 55.116 48.4963 55.344C48.4963 55.572 48.5423 55.772 48.6343 55.944C48.7303 56.112 48.8543 56.24 49.0063 56.328C49.1623 56.416 49.3263 56.46 49.4983 56.46C49.6743 56.46 49.8383 56.416 49.9903 56.328C50.1463 56.236 50.2703 56.104 50.3623 55.932C50.4583 55.76 50.5063 55.56 50.5063 55.332Z" fill="#141414"/>
<path opacity="0.2" d="M76.0119 52.83V57H75.3279V54.144L74.0559 57H73.5819L72.3039 54.144V57H71.6199V52.83H72.3579L73.8219 56.1L75.2799 52.83H76.0119ZM76.6829 55.332C76.6829 55 76.7509 54.706 76.8869 54.45C77.0269 54.194 77.2149 53.996 77.4509 53.856C77.6909 53.712 77.9549 53.64 78.2429 53.64C78.5029 53.64 78.7289 53.692 78.9209 53.796C79.1169 53.896 79.2729 54.022 79.3889 54.174V53.694H80.0789V57H79.3889V56.508C79.2729 56.664 79.1149 56.794 78.9149 56.898C78.7149 57.002 78.4869 57.054 78.2309 57.054C77.9469 57.054 77.6869 56.982 77.4509 56.838C77.2149 56.69 77.0269 56.486 76.8869 56.226C76.7509 55.962 76.6829 55.664 76.6829 55.332ZM79.3889 55.344C79.3889 55.116 79.3409 54.918 79.2449 54.75C79.1529 54.582 79.0309 54.454 78.8789 54.366C78.7269 54.278 78.5629 54.234 78.3869 54.234C78.2109 54.234 78.0469 54.278 77.8949 54.366C77.7429 54.45 77.6189 54.576 77.5229 54.744C77.4309 54.908 77.3849 55.104 77.3849 55.332C77.3849 55.56 77.4309 55.76 77.5229 55.932C77.6189 56.104 77.7429 56.236 77.8949 56.328C78.0509 56.416 78.2149 56.46 78.3869 56.46C78.5629 56.46 78.7269 56.416 78.8789 56.328C79.0309 56.24 79.1529 56.112 79.2449 55.944C79.3409 55.772 79.3889 55.572 79.3889 55.344ZM81.6613 54.174C81.7613 54.006 81.8933 53.876 82.0573 53.784C82.2253 53.688 82.4233 53.64 82.6513 53.64V54.348H82.4773C82.2093 54.348 82.0053 54.416 81.8653 54.552C81.7293 54.688 81.6613 54.924 81.6613 55.26V57H80.9773V53.694H81.6613V54.174Z" fill="#141414"/>
<path d="M14.5 40.4991C20.3333 27.8325 34.7 2.69912 45.5 3.49912C56.3 4.29912 71.3333 14.4997 77.5 19.5" stroke="#CBE71E" stroke-linecap="round"/>
<circle cx="46" cy="3" r="2.5" fill="#F7F7F7" stroke="#DDDDDD"/>
<path d="M78 41V1" stroke="#DDDDDD" stroke-linecap="round" stroke-dasharray="3 3"/>
<path d="M14 41V1" stroke="#DDDDDD" stroke-linecap="round" stroke-dasharray="3 3"/>
</svg>
