<svg width="24" height="24" viewBox="0 0 24 24" fill="none" xmlns="http://www.w3.org/2000/svg">
<path d="M15.398 19.1041C15.4532 19.1556 15.4976 19.2177 15.5283 19.2867C15.5591 19.3557 15.5756 19.4302 15.5769 19.5057C15.5783 19.5812 15.5644 19.6563 15.5361 19.7263C15.5078 19.7963 15.4657 19.86 15.4123 19.9134C15.3588 19.9668 15.2952 20.0089 15.2252 20.0372C15.1551 20.0655 15.0801 20.0794 15.0046 20.078C14.9291 20.0767 14.8546 20.0602 14.7856 20.0294C14.7166 19.9987 14.6545 19.9544 14.603 19.8991L7.10298 12.3991C6.99764 12.2936 6.93848 12.1507 6.93848 12.0016C6.93848 11.8525 6.99764 11.7096 7.10298 11.6041L14.603 4.10409C14.7096 4.00473 14.8506 3.95064 14.9964 3.95321C15.1421 3.95578 15.2811 4.01482 15.3842 4.11788C15.4873 4.22094 15.5463 4.35998 15.5489 4.5057C15.5514 4.65143 15.4973 4.79246 15.398 4.89909L8.29642 12.0016L15.398 19.1041Z" fill="#141414"/>
</svg>
