<svg width="19" height="16" viewBox="0 0 19 16" fill="none" xmlns="http://www.w3.org/2000/svg">
<path d="M16.1458 4.48769L11.5458 0.18C11.4847 0.122871 11.4122 0.0775705 11.3324 0.0466855C11.2527 0.0158005 11.1672 -6.33759e-05 11.0809 1.90276e-07H3.19515C2.84657 1.90276e-07 2.51228 0.12967 2.2658 0.360484C2.01933 0.591298 1.88086 0.904349 1.88086 1.23077V14.7692C1.88086 15.0957 2.01933 15.4087 2.2658 15.6395C2.51228 15.8703 2.84657 16 3.19515 16H15.0237C15.3723 16 15.7066 15.8703 15.9531 15.6395C16.1995 15.4087 16.338 15.0957 16.338 14.7692V4.92308C16.3381 4.84224 16.3211 4.76218 16.2882 4.68748C16.2552 4.61277 16.2068 4.54488 16.1458 4.48769ZM11.738 2.10077L14.0947 4.30769H11.738V2.10077ZM15.0237 14.7692H3.19515V1.23077H10.4237V4.92308C10.4237 5.08629 10.493 5.24281 10.6162 5.35822C10.7394 5.47363 10.9066 5.53846 11.0809 5.53846H15.0237V14.7692ZM11.5458 8.79538C11.6068 8.85256 11.6553 8.92044 11.6883 8.99514C11.7214 9.06984 11.7384 9.14991 11.7384 9.23077C11.7384 9.31163 11.7214 9.3917 11.6883 9.4664C11.6553 9.5411 11.6068 9.60898 11.5458 9.66615C11.4847 9.72333 11.4123 9.76868 11.3325 9.79963C11.2527 9.83057 11.1672 9.8465 11.0809 9.8465C10.9945 9.8465 10.909 9.83057 10.8292 9.79963C10.7495 9.76868 10.677 9.72333 10.6159 9.66615L9.76657 8.87V12.3077C9.76657 12.4709 9.69734 12.6274 9.5741 12.7428C9.45086 12.8582 9.28372 12.9231 9.10943 12.9231C8.93515 12.9231 8.768 12.8582 8.64476 12.7428C8.52152 12.6274 8.45229 12.4709 8.45229 12.3077V8.87L7.60293 9.66615C7.54188 9.72333 7.46939 9.76868 7.38962 9.79963C7.30985 9.83057 7.22435 9.8465 7.138 9.8465C7.05166 9.8465 6.96616 9.83057 6.88638 9.79963C6.80661 9.76868 6.73413 9.72333 6.67307 9.66615C6.61202 9.60898 6.56359 9.5411 6.53054 9.4664C6.4975 9.3917 6.48049 9.31163 6.48049 9.23077C6.48049 9.14991 6.4975 9.06984 6.53054 8.99514C6.56359 8.92044 6.61202 8.85256 6.67307 8.79538L8.6445 6.94923C8.70553 6.89201 8.77801 6.84662 8.85779 6.81566C8.93756 6.78469 9.02307 6.76875 9.10943 6.76875C9.19579 6.76875 9.2813 6.78469 9.36108 6.81566C9.44085 6.84662 9.51333 6.89201 9.57436 6.94923L11.5458 8.79538Z" fill="#141414"/>
</svg>
