<svg width="20" height="20" viewBox="0 0 20 20" fill="none" xmlns="http://www.w3.org/2000/svg">
<path d="M19.8866 18.783C18.4236 16.1528 16.169 14.2668 13.5379 13.3727C14.8394 12.567 15.8506 11.3393 16.4161 9.87816C16.9817 8.41701 17.0704 6.80319 16.6686 5.28454C16.2668 3.76589 15.3968 2.42637 14.1921 1.4717C12.9874 0.517034 11.5146 0 10 0C8.48538 0 7.01262 0.517034 5.80792 1.4717C4.60321 2.42637 3.73316 3.76589 3.33138 5.28454C2.9296 6.80319 3.0183 8.41701 3.58387 9.87816C4.14944 11.3393 5.1606 12.567 6.46207 13.3727C3.83095 14.2658 1.5764 16.1518 0.113387 18.783C0.0597359 18.874 0.0241494 18.9752 0.00872733 19.0807C-0.00669474 19.1862 -0.00164002 19.2939 0.0235932 19.3973C0.0488265 19.5008 0.0937273 19.5979 0.155646 19.683C0.217565 19.7681 0.295248 19.8395 0.384111 19.8929C0.472975 19.9462 0.571219 19.9806 0.673047 19.9938C0.774875 20.0071 0.878224 19.999 0.976997 19.97C1.07577 19.9411 1.16797 19.8918 1.24815 19.8252C1.32832 19.7586 1.39486 19.676 1.44383 19.5822C3.25363 16.3296 6.45246 14.3876 10 14.3876C13.5475 14.3876 16.7464 16.3296 18.5562 19.5822C18.6051 19.676 18.6717 19.7586 18.7519 19.8252C18.832 19.8918 18.9242 19.9411 19.023 19.97C19.1218 19.999 19.2251 20.0071 19.327 19.9938C19.4288 19.9806 19.527 19.9462 19.6159 19.8929C19.7048 19.8395 19.7824 19.7681 19.8444 19.683C19.9063 19.5979 19.9512 19.5008 19.9764 19.3973C20.0016 19.2939 20.0067 19.1862 19.9913 19.0807C19.9759 18.9752 19.9403 18.874 19.8866 18.783ZM4.62058 7.19518C4.62058 6.08876 4.93607 5.00719 5.52717 4.08724C6.11827 3.16729 6.95842 2.45028 7.94138 2.02687C8.92435 1.60346 10.006 1.49268 11.0495 1.70853C12.093 1.92438 13.0515 2.45717 13.8038 3.23953C14.5562 4.02188 15.0685 5.01866 15.2761 6.10382C15.4836 7.18897 15.3771 8.31377 14.9699 9.33596C14.5628 10.3582 13.8733 11.2318 12.9886 11.8465C12.104 12.4612 11.064 12.7893 10 12.7893C8.57376 12.7877 7.20637 12.1978 6.19786 11.1491C5.18935 10.1003 4.6221 8.67835 4.62058 7.19518Z" fill="#141414"/>
</svg>
