<svg width="20" height="20" viewBox="0 0 20 20" fill="none" xmlns="http://www.w3.org/2000/svg">
<path d="M10 5.41212C9.09292 5.41212 8.20617 5.68111 7.45194 6.18507C6.6977 6.68904 6.10984 7.40534 5.7627 8.24341C5.41557 9.08147 5.32474 10.0037 5.50171 10.8933C5.67868 11.783 6.11549 12.6003 6.75692 13.2417C7.39835 13.8831 8.21558 14.3199 9.10526 14.4969C9.99494 14.6739 10.9171 14.583 11.7552 14.2359C12.5933 13.8888 13.3096 13.3009 13.8135 12.5467C14.3175 11.7924 14.5865 10.9057 14.5865 9.99857C14.5852 8.78255 14.1016 7.61671 13.2417 6.75685C12.3819 5.897 11.216 5.41338 10 5.41212ZM10 13.0562C9.39529 13.0562 8.80413 12.8769 8.3013 12.5409C7.79848 12.2049 7.40657 11.7274 7.17515 11.1687C6.94372 10.61 6.88317 9.99518 7.00115 9.40205C7.11913 8.80893 7.41034 8.26411 7.83796 7.83649C8.26558 7.40888 8.81039 7.11766 9.40352 6.99968C9.99664 6.8817 10.6114 6.94226 11.1701 7.17368C11.7288 7.40511 12.2064 7.79701 12.5424 8.29984C12.8783 8.80266 13.0577 9.39382 13.0577 9.99857C13.0577 10.8095 12.7355 11.5872 12.1621 12.1606C11.5887 12.7341 10.811 13.0562 10 13.0562ZM18.4085 10.205C18.4123 10.0674 18.4123 9.92977 18.4085 9.79218L19.8341 8.0111C19.9089 7.91759 19.9606 7.80783 19.9852 7.69065C20.0098 7.57348 20.0065 7.45218 19.9756 7.33651C19.7419 6.45802 19.3923 5.61454 18.936 4.8283C18.8762 4.72541 18.7933 4.63788 18.6938 4.57269C18.5942 4.5075 18.4809 4.46644 18.3627 4.45278L16.0962 4.20053C16.0019 4.10116 15.9064 4.0056 15.8095 3.91388L15.542 1.64167C15.5282 1.52339 15.487 1.40996 15.4217 1.31042C15.3563 1.21089 15.2686 1.128 15.1655 1.06836C14.379 0.612917 13.5356 0.263666 12.6573 0.0297242C12.5416 -0.00104622 12.4202 -0.00419339 12.303 0.0205363C12.1859 0.0452659 12.0761 0.0971805 11.9827 0.172095L10.2064 1.59007C10.0688 1.59007 9.93123 1.59007 9.79364 1.59007L8.01257 0.167318C7.91905 0.0925665 7.80929 0.0408252 7.69212 0.0162621C7.57495 -0.0083009 7.45364 -0.00499902 7.33798 0.025902C6.45963 0.260028 5.6162 0.609607 4.82976 1.0655C4.72687 1.12524 4.63935 1.20818 4.57416 1.30771C4.50896 1.40724 4.46791 1.52061 4.45425 1.6388L4.20199 3.9091C4.10262 4.00401 4.00707 4.09956 3.91534 4.19575L1.64314 4.4566C1.52486 4.47037 1.41143 4.51157 1.31189 4.57693C1.21235 4.64229 1.12946 4.73001 1.06983 4.83308C0.614382 5.61962 0.265131 6.46303 0.031189 7.34129C0.000418622 7.45703 -0.00272855 7.57837 0.0220011 7.69555C0.0467308 7.81273 0.0986453 7.92245 0.17356 8.01588L1.59154 9.79218C1.59154 9.92977 1.59154 10.0674 1.59154 10.205L0.168783 11.986C0.0940314 12.0795 0.04229 12.1893 0.017727 12.3065C-0.00683606 12.4237 -0.00353418 12.545 0.0273669 12.6606C0.261075 13.5391 0.610677 14.3826 1.06696 15.1688C1.12671 15.2717 1.20964 15.3593 1.30917 15.4244C1.4087 15.4896 1.52208 15.5307 1.64027 15.5444L3.90674 15.7966C4.00165 15.896 4.09721 15.9915 4.19339 16.0833L4.45807 18.3555C4.47183 18.4737 4.51303 18.5872 4.5784 18.6867C4.64376 18.7862 4.73147 18.8691 4.83454 18.9288C5.62108 19.3842 6.46449 19.7335 7.34276 19.9674C7.45849 19.9982 7.57984 20.0013 7.69701 19.9766C7.81419 19.9519 7.92392 19.9 8.01735 19.825L9.79364 18.4071C9.93123 18.4109 10.0688 18.4109 10.2064 18.4071L11.9875 19.8327C12.081 19.9074 12.1908 19.9592 12.3079 19.9837C12.4251 20.0083 12.5464 20.005 12.6621 19.9741C13.5406 19.7404 14.3841 19.3908 15.1703 18.9345C15.2732 18.8748 15.3607 18.7918 15.4259 18.6923C15.4911 18.5928 15.5322 18.4794 15.5458 18.3612L15.7981 16.0947C15.8974 16.0004 15.993 15.9049 16.0847 15.8081L18.3569 15.5405C18.4752 15.5268 18.5886 15.4856 18.6882 15.4202C18.7877 15.3548 18.8706 15.2671 18.9302 15.1641C19.3857 14.3775 19.7349 13.5341 19.9689 12.6558C19.9996 12.5401 20.0028 12.4188 19.9781 12.3016C19.9533 12.1844 19.9014 12.0747 19.8265 11.9813L18.4085 10.205ZM16.8702 9.58388C16.8864 9.8601 16.8864 10.137 16.8702 10.4133C16.8588 10.6024 16.918 10.789 17.0364 10.9369L18.3923 12.631C18.2367 13.1254 18.0375 13.6051 17.797 14.0643L15.6375 14.3089C15.4495 14.3298 15.2759 14.4196 15.1502 14.5611C14.9663 14.768 14.7704 14.9639 14.5635 15.1478C14.4221 15.2734 14.3322 15.4471 14.3113 15.6351L14.0715 17.7927C13.6123 18.0333 13.1327 18.2325 12.6382 18.388L10.9431 17.0321C10.8075 16.9237 10.639 16.8647 10.4654 16.8649H10.4195C10.1433 16.8811 9.86634 16.8811 9.59012 16.8649C9.40101 16.8535 9.2144 16.9127 9.0665 17.0311L7.3676 18.388C6.87315 18.2324 6.39351 18.0332 5.93433 17.7927L5.68972 15.6361C5.66885 15.448 5.57897 15.2744 5.43747 15.1488C5.23061 14.9648 5.03471 14.7689 4.85078 14.5621C4.72517 14.4206 4.55153 14.3307 4.36347 14.3098L2.20593 14.069C1.96533 13.6099 1.76611 13.1303 1.61065 12.6358L2.96652 10.9407C3.08491 10.7928 3.14416 10.6062 3.13278 10.4171C3.11653 10.1409 3.11653 9.86392 3.13278 9.5877C3.14416 9.39858 3.08491 9.21198 2.96652 9.06408L1.61065 7.36613C1.76623 6.87169 1.96544 6.39205 2.20593 5.93287L4.36252 5.68826C4.55058 5.66738 4.72421 5.5775 4.84983 5.436C5.03376 5.22914 5.22965 5.03325 5.43651 4.84932C5.57857 4.72362 5.66883 4.54959 5.68972 4.36105L5.92956 2.20447C6.38868 1.96386 6.86833 1.76465 7.36282 1.60918L9.0579 2.96505C9.2058 3.08345 9.39241 3.1427 9.58152 3.13131C9.85774 3.11507 10.1347 3.11507 10.4109 3.13131C10.6 3.1427 10.7866 3.08345 10.9345 2.96505L12.6325 1.60918C13.1269 1.76476 13.6066 1.96398 14.0657 2.20447L14.3103 4.36105C14.3312 4.54911 14.4211 4.72275 14.5626 4.84836C14.7695 5.03229 14.9654 5.22819 15.1493 5.43505C15.2749 5.57655 15.4485 5.66643 15.6366 5.6873L17.7941 5.92714C18.0347 6.38626 18.234 6.86591 18.3894 7.3604L17.0335 9.05548C16.914 9.20463 16.8547 9.39315 16.8673 9.58388H16.8702Z" fill="#141414"/>
</svg>
