<svg width="20" height="20" viewBox="0 0 20 20" fill="none" xmlns="http://www.w3.org/2000/svg">
<path d="M7.27273 0H1.81818C1.33597 0 0.873508 0.191558 0.532533 0.532533C0.191558 0.873508 0 1.33597 0 1.81818V7.27273C0 7.75494 0.191558 8.2174 0.532533 8.55838C0.873508 8.89935 1.33597 9.09091 1.81818 9.09091H7.27273C7.75494 9.09091 8.2174 8.89935 8.55838 8.55838C8.89935 8.2174 9.09091 7.75494 9.09091 7.27273V1.81818C9.09091 1.33597 8.89935 0.873508 8.55838 0.532533C8.2174 0.191558 7.75494 0 7.27273 0ZM7.27273 7.27273H1.81818V1.81818H7.27273V7.27273ZM18.1818 0H12.7273C12.2451 0 11.7826 0.191558 11.4416 0.532533C11.1006 0.873508 10.9091 1.33597 10.9091 1.81818V7.27273C10.9091 7.75494 11.1006 8.2174 11.4416 8.55838C11.7826 8.89935 12.2451 9.09091 12.7273 9.09091H18.1818C18.664 9.09091 19.1265 8.89935 19.4675 8.55838C19.8084 8.2174 20 7.75494 20 7.27273V1.81818C20 1.33597 19.8084 0.873508 19.4675 0.532533C19.1265 0.191558 18.664 0 18.1818 0ZM18.1818 7.27273H12.7273V1.81818H18.1818V7.27273ZM7.27273 10.9091H1.81818C1.33597 10.9091 0.873508 11.1006 0.532533 11.4416C0.191558 11.7826 0 12.2451 0 12.7273V18.1818C0 18.664 0.191558 19.1265 0.532533 19.4675C0.873508 19.8084 1.33597 20 1.81818 20H7.27273C7.75494 20 8.2174 19.8084 8.55838 19.4675C8.89935 19.1265 9.09091 18.664 9.09091 18.1818V12.7273C9.09091 12.2451 8.89935 11.7826 8.55838 11.4416C8.2174 11.1006 7.75494 10.9091 7.27273 10.9091ZM7.27273 18.1818H1.81818V12.7273H7.27273V18.1818ZM18.1818 10.9091H12.7273C12.2451 10.9091 11.7826 11.1006 11.4416 11.4416C11.1006 11.7826 10.9091 12.2451 10.9091 12.7273V18.1818C10.9091 18.664 11.1006 19.1265 11.4416 19.4675C11.7826 19.8084 12.2451 20 12.7273 20H18.1818C18.664 20 19.1265 19.8084 19.4675 19.4675C19.8084 19.1265 20 18.664 20 18.1818V12.7273C20 12.2451 19.8084 11.7826 19.4675 11.4416C19.1265 11.1006 18.664 10.9091 18.1818 10.9091ZM18.1818 18.1818H12.7273V12.7273H18.1818V18.1818Z" fill="#141414"/>
</svg>
