<svg width="16" height="16" viewBox="0 0 16 16" fill="none" xmlns="http://www.w3.org/2000/svg">
<path d="M8.70613 7.99852L12.8561 3.85477C12.9359 3.75762 12.9766 3.63429 12.9704 3.50876C12.9643 3.38323 12.9116 3.26449 12.8228 3.17562C12.7339 3.08675 12.6152 3.03412 12.4896 3.02795C12.3641 3.02179 12.2408 3.06253 12.1436 3.14227L7.99988 7.29227L3.85613 3.14227C3.75899 3.06253 3.63565 3.02179 3.51013 3.02795C3.3846 3.03412 3.26586 3.08675 3.17699 3.17562C3.08812 3.26449 3.03549 3.38323 3.02932 3.50876C3.02316 3.63429 3.0639 3.75762 3.14363 3.85477L7.29363 7.99852L3.14363 12.1423C3.04974 12.2371 2.99707 12.3651 2.99707 12.4985C2.99707 12.6319 3.04974 12.76 3.14363 12.8548C3.2392 12.9472 3.36694 12.9988 3.49988 12.9988C3.63282 12.9988 3.76056 12.9472 3.85613 12.8548L7.99988 8.70477L12.1436 12.8548C12.2392 12.9472 12.3669 12.9988 12.4999 12.9988C12.6328 12.9988 12.7606 12.9472 12.8561 12.8548C12.95 12.76 13.0027 12.6319 13.0027 12.4985C13.0027 12.3651 12.95 12.2371 12.8561 12.1423L8.70613 7.99852Z" fill="#DDDFE8"/>
</svg>
