<svg width="20" height="20" viewBox="0 0 20 20" fill="none" xmlns="http://www.w3.org/2000/svg">
<path d="M3.74989 5.9375C3.74989 4.6943 4.24375 3.50201 5.12283 2.62294C6.00191 1.74386 7.19419 1.25 8.43739 1.25C9.6806 1.25 10.8729 1.74386 11.752 2.62294C12.631 3.50201 13.1249 4.6943 13.1249 5.9375C13.1249 6.10326 13.059 6.26223 12.9418 6.37944C12.8246 6.49665 12.6657 6.5625 12.4999 6.5625C12.3341 6.5625 12.1752 6.49665 12.058 6.37944C11.9407 6.26223 11.8749 6.10326 11.8749 5.9375C11.8749 5.02582 11.5127 4.15148 10.8681 3.50682C10.2234 2.86216 9.34907 2.5 8.43739 2.5C7.52571 2.5 6.65137 2.86216 6.00671 3.50682C5.36206 4.15148 4.99989 5.02582 4.99989 5.9375C4.99989 6.10326 4.93404 6.26223 4.81683 6.37944C4.69962 6.49665 4.54065 6.5625 4.37489 6.5625C4.20913 6.5625 4.05016 6.49665 3.93295 6.37944C3.81574 6.26223 3.74989 6.10326 3.74989 5.9375ZM14.6874 9.375C14.3228 9.3746 13.9639 9.46566 13.6436 9.63984C13.5479 9.34367 13.3901 9.07133 13.1808 8.84102C12.9714 8.61071 12.7153 8.42773 12.4295 8.30431C12.1438 8.18089 11.835 8.11987 11.5238 8.12532C11.2126 8.13078 10.9061 8.20258 10.6249 8.33594V5.9375C10.6249 5.35734 10.3944 4.80094 9.98419 4.3907C9.57395 3.98047 9.01755 3.75 8.43739 3.75C7.85723 3.75 7.30083 3.98047 6.8906 4.3907C6.48036 4.80094 6.24989 5.35734 6.24989 5.9375V12.1875L5.95146 11.7086C5.65961 11.2071 5.18049 10.842 4.6195 10.6937C4.0585 10.5455 3.46158 10.6261 2.96005 10.918C2.45852 11.2098 2.09347 11.6889 1.9452 12.2499C1.79693 12.8109 1.87758 13.4078 2.16942 13.9094L4.46005 17.8156C4.49847 17.8917 4.55204 17.9591 4.61747 18.0137C4.6829 18.0683 4.75881 18.109 4.84054 18.1332C4.92226 18.1574 5.00807 18.1646 5.09268 18.1544C5.1773 18.1442 5.25894 18.1168 5.33258 18.0739C5.40623 18.031 5.47032 17.9735 5.52091 17.9049C5.57151 17.8364 5.60754 17.7581 5.6268 17.6751C5.64605 17.5921 5.64812 17.506 5.63288 17.4221C5.61764 17.3383 5.58541 17.2584 5.53817 17.1875L3.24989 13.2813C3.18565 13.1745 3.14331 13.0561 3.12536 12.9329C3.1074 12.8096 3.11418 12.684 3.14531 12.5634C3.17643 12.4428 3.23128 12.3296 3.30664 12.2304C3.38201 12.1313 3.47637 12.0481 3.58423 11.9858C3.69209 11.9236 3.81128 11.8834 3.93484 11.8677C4.0584 11.852 4.18385 11.861 4.30387 11.8944C4.42388 11.9277 4.53605 11.9846 4.63382 12.0617C4.7316 12.1389 4.81302 12.2348 4.87333 12.3438L4.88427 12.3617L6.34364 14.7055C6.4153 14.8211 6.52271 14.9102 6.64958 14.9592C6.77646 15.0082 6.91587 15.0145 7.04665 14.9772C7.17743 14.9398 7.29245 14.8608 7.37425 14.7521C7.45605 14.6434 7.50016 14.511 7.49989 14.375V5.9375C7.49989 5.68886 7.59867 5.4504 7.77448 5.27459C7.9503 5.09877 8.18875 5 8.43739 5C8.68603 5 8.92449 5.09877 9.10031 5.27459C9.27612 5.4504 9.37489 5.68886 9.37489 5.9375V11.25C9.37489 11.4158 9.44074 11.5747 9.55795 11.6919C9.67516 11.8092 9.83413 11.875 9.99989 11.875C10.1657 11.875 10.3246 11.8092 10.4418 11.6919C10.559 11.5747 10.6249 11.4158 10.6249 11.25V10.3125C10.6249 10.0639 10.7237 9.8254 10.8995 9.64959C11.0753 9.47377 11.3138 9.375 11.5624 9.375C11.811 9.375 12.0495 9.47377 12.2253 9.64959C12.4011 9.8254 12.4999 10.0639 12.4999 10.3125V11.875C12.4999 12.0408 12.5657 12.1997 12.683 12.3169C12.8002 12.4342 12.9591 12.5 13.1249 12.5C13.2907 12.5 13.4496 12.4342 13.5668 12.3169C13.684 12.1997 13.7499 12.0408 13.7499 11.875V11.5625C13.7499 11.3139 13.8487 11.0754 14.0245 10.8996C14.2003 10.7238 14.4388 10.625 14.6874 10.625C14.936 10.625 15.1745 10.7238 15.3503 10.8996C15.5261 11.0754 15.6249 11.3139 15.6249 11.5625V14.375C15.6249 16.0633 15.0702 17.2109 15.0655 17.2203C14.9915 17.3686 14.9793 17.5402 15.0318 17.6974C15.0842 17.8546 15.197 17.9845 15.3452 18.0586C15.4319 18.1024 15.5277 18.1252 15.6249 18.125C15.741 18.1251 15.8548 18.0928 15.9536 18.0318C16.0524 17.9708 16.1323 17.8835 16.1843 17.7797C16.2132 17.7227 16.8757 16.3734 16.8757 14.375V11.5625C16.8757 11.2752 16.8191 10.9907 16.7091 10.7252C16.5991 10.4597 16.4379 10.2186 16.2347 10.0154C16.0315 9.81229 15.7902 9.65118 15.5248 9.54129C15.2593 9.4314 14.9747 9.3749 14.6874 9.375Z" fill="#141414"/>
</svg>
