<svg width="34" height="27" viewBox="0 0 34 27" fill="none" xmlns="http://www.w3.org/2000/svg">
<path d="M32.1469 6.75H13.7655L10.7108 0.621562C10.6175 0.434656 10.4742 0.277498 10.2968 0.167712C10.1194 0.0579253 9.91504 -0.000149344 9.7066 2.88424e-07H5.21853C4.92096 2.88424e-07 4.63557 0.118527 4.42515 0.329505C4.21473 0.540484 4.09652 0.826632 4.09652 1.125V6.75H1.85248C1.55491 6.75 1.26952 6.86853 1.0591 7.07951C0.848681 7.29048 0.730469 7.57663 0.730469 7.875C0.730469 8.17337 0.848681 8.45952 1.0591 8.6705C1.26952 8.88147 1.55491 9 1.85248 9H4.09652V24.75H1.85248C1.55491 24.75 1.26952 24.8685 1.0591 25.0795C0.848681 25.2905 0.730469 25.5766 0.730469 25.875C0.730469 26.1734 0.848681 26.4595 1.0591 26.6705C1.26952 26.8815 1.55491 27 1.85248 27H16.4387C16.7363 27 17.0217 26.8815 17.2321 26.6705C17.4425 26.4595 17.5607 26.1734 17.5607 25.875C17.5607 25.5766 17.4425 25.2905 17.2321 25.0795C17.0217 24.8685 16.7363 24.75 16.4387 24.75H14.1947V9H27.6589V21.375H25.4148V20.25C25.4148 19.9516 25.2966 19.6655 25.0862 19.4545C24.8758 19.2435 24.5904 19.125 24.2928 19.125C23.9952 19.125 23.7098 19.2435 23.4994 19.4545C23.289 19.6655 23.1708 19.9516 23.1708 20.25V21.375C23.1708 21.9717 23.4072 22.544 23.8281 22.966C24.2489 23.3879 24.8197 23.625 25.4148 23.625H27.6589C28.254 23.625 28.8248 23.3879 29.2456 22.966C29.6665 22.544 29.9029 21.9717 29.9029 21.375V9H32.1469C32.4445 9 32.7299 8.88147 32.9403 8.6705C33.1507 8.45952 33.2689 8.17337 33.2689 7.875C33.2689 7.57663 33.1507 7.29048 32.9403 7.07951C32.7299 6.86853 32.4445 6.75 32.1469 6.75ZM6.34055 2.25H9.01375L11.2578 6.75H6.34055V2.25ZM6.34055 24.75V18H11.9506V24.75H6.34055ZM11.9506 15.75H6.34055V9H11.9506V15.75Z" fill="black"/>
</svg>
