<svg width="20" height="20" viewBox="0 0 20 20" fill="none" xmlns="http://www.w3.org/2000/svg">
<path d="M18.852 5.10119C18.6783 5.19147 18.476 5.20883 18.2896 5.14946C18.1032 5.09009 17.9479 4.95885 17.8578 4.78459C17.1536 3.38811 16.0877 2.2078 14.7721 1.3677C14.6901 1.31579 14.6191 1.24817 14.5631 1.16872C14.5072 1.08926 14.4673 0.999524 14.4459 0.904621C14.4245 0.809718 14.4219 0.711512 14.4383 0.615609C14.4547 0.519707 14.4898 0.427985 14.5415 0.345683C14.5932 0.26338 14.6606 0.192108 14.7397 0.135936C14.8189 0.0797634 14.9083 0.0397907 15.0028 0.0183001C15.0974 -0.00319058 15.1952 -0.00577833 15.2907 0.0106846C15.3863 0.0271475 15.4777 0.0623387 15.5596 0.114249C17.0929 1.09973 18.3379 2.47632 19.1674 4.10325C19.2573 4.27758 19.2746 4.48062 19.2155 4.66775C19.1563 4.85488 19.0256 5.01078 18.852 5.10119ZM1.48747 5.18451C1.62263 5.18445 1.75518 5.14712 1.87065 5.0766C1.98612 5.00607 2.08007 4.90506 2.14225 4.78459C2.84646 3.38811 3.91237 2.2078 5.228 1.3677C5.39358 1.26286 5.5109 1.09629 5.55414 0.904621C5.59737 0.712956 5.56299 0.5119 5.45855 0.345683C5.35411 0.179466 5.18817 0.0617024 4.99724 0.0183001C4.8063 -0.0251023 4.60601 0.00941156 4.44042 0.114249C2.90714 1.09973 1.66212 2.47632 0.832691 4.10325C0.774442 4.21611 0.746112 4.34213 0.750429 4.46916C0.754746 4.5962 0.791564 4.71999 0.85734 4.82861C0.923116 4.93722 1.01564 5.02702 1.12599 5.08935C1.23635 5.15168 1.36084 5.18445 1.48747 5.18451ZM18.65 14.8066C18.7807 15.0316 18.85 15.2872 18.8509 15.5477C18.8518 15.8081 18.7842 16.0642 18.6551 16.2901C18.5259 16.516 18.3397 16.7037 18.1152 16.8343C17.8907 16.9649 17.6359 17.0337 17.3764 17.0339H13.6138C13.4444 17.871 12.992 18.6236 12.3332 19.1641C11.6743 19.7047 10.8496 20 9.99865 20C9.14773 20 8.32297 19.7047 7.66413 19.1641C7.00529 18.6236 6.55287 17.871 6.38354 17.0339H2.62088C2.36157 17.0334 2.10697 16.9643 1.88274 16.8336C1.6585 16.7029 1.47255 16.5151 1.3436 16.2893C1.21466 16.0635 1.14727 15.8075 1.14825 15.5472C1.14922 15.2869 1.21851 15.0315 1.34913 14.8066C2.18006 13.3671 2.62088 11.3203 2.62088 8.88745C2.62088 6.92329 3.39818 5.03957 4.78178 3.6507C6.16538 2.26182 8.04194 1.48156 9.99865 1.48156C11.9554 1.48156 13.8319 2.26182 15.2155 3.6507C16.5991 5.03957 17.3764 6.92329 17.3764 8.88745C17.3764 11.3194 17.8172 13.3662 18.65 14.8066ZM12.0847 17.0339H7.91258C8.06543 17.4666 8.34807 17.8412 8.72162 18.1061C9.09517 18.371 9.54129 18.5132 9.99865 18.5132C10.456 18.5132 10.9021 18.371 11.2757 18.1061C11.6492 17.8412 11.9319 17.4666 12.0847 17.0339ZM17.3764 15.5528C16.3952 13.8614 15.9009 11.6193 15.9009 8.88745C15.9009 7.31612 15.279 5.80915 14.1721 4.69805C13.0653 3.58695 11.564 2.96274 9.99865 2.96274C8.43328 2.96274 6.93203 3.58695 5.82515 4.69805C4.71827 5.80915 4.09643 7.31612 4.09643 8.88745C4.09643 11.6202 3.60028 13.8624 2.62088 15.5528H17.3764Z" fill="#141414"/>
</svg>
