<svg width="12" height="12" viewBox="0 0 12 12" fill="none" xmlns="http://www.w3.org/2000/svg">
<path d="M8.5165 7.98498C8.55136 8.01981 8.57902 8.06117 8.59789 8.10669C8.61677 8.15222 8.62648 8.20101 8.62648 8.25029C8.62648 8.29958 8.61677 8.34837 8.59789 8.3939C8.57902 8.43942 8.55136 8.48078 8.5165 8.51561L6.2665 10.7656C6.23167 10.8005 6.19031 10.8281 6.14479 10.847C6.09926 10.8659 6.05047 10.8756 6.00118 10.8756C5.9519 10.8756 5.90311 10.8659 5.85758 10.847C5.81206 10.8281 5.7707 10.8005 5.73587 10.7656L3.48587 8.51561C3.41551 8.44524 3.37598 8.34981 3.37598 8.25029C3.37598 8.15078 3.41551 8.05535 3.48587 7.98498C3.55624 7.91462 3.65167 7.87509 3.75119 7.87509C3.8507 7.87509 3.94613 7.91462 4.0165 7.98498L6.00118 9.97014L7.98587 7.98498C8.0207 7.95012 8.06206 7.92246 8.10758 7.90358C8.15311 7.88471 8.2019 7.875 8.25118 7.875C8.30047 7.875 8.34926 7.88471 8.39479 7.90358C8.44031 7.92246 8.48167 7.95012 8.5165 7.98498ZM4.0165 4.01561L6.00118 2.03045L7.98587 4.01561C8.05624 4.08597 8.15167 4.1255 8.25118 4.1255C8.3507 4.1255 8.44613 4.08597 8.5165 4.01561C8.58686 3.94524 8.62639 3.84981 8.62639 3.7503C8.62639 3.65078 8.58686 3.55535 8.5165 3.48498L6.2665 1.23498C6.23167 1.20012 6.19031 1.17246 6.14479 1.15359C6.09926 1.13471 6.05047 1.125 6.00118 1.125C5.9519 1.125 5.90311 1.13471 5.85758 1.15359C5.81206 1.17246 5.7707 1.20012 5.73587 1.23498L3.48587 3.48498C3.41551 3.55535 3.37598 3.65078 3.37598 3.7503C3.37598 3.84981 3.41551 3.94524 3.48587 4.01561C3.55624 4.08597 3.65167 4.1255 3.75119 4.1255C3.8507 4.1255 3.94613 4.08597 4.0165 4.01561Z" fill="#141414"/>
</svg>
