<svg width="13" height="12" viewBox="0 0 13 12" fill="none" xmlns="http://www.w3.org/2000/svg">
<path d="M9.0165 7.98498C9.05136 8.01981 9.07902 8.06117 9.09789 8.10669C9.11677 8.15222 9.12648 8.20101 9.12648 8.25029C9.12648 8.29958 9.11677 8.34837 9.09789 8.3939C9.07902 8.43942 9.05136 8.48078 9.0165 8.51561L6.7665 10.7656C6.73167 10.8005 6.69031 10.8281 6.64479 10.847C6.59926 10.8659 6.55047 10.8756 6.50118 10.8756C6.4519 10.8756 6.40311 10.8659 6.35758 10.847C6.31206 10.8281 6.2707 10.8005 6.23587 10.7656L3.98587 8.51561C3.91551 8.44524 3.87598 8.34981 3.87598 8.25029C3.87598 8.15078 3.91551 8.05535 3.98587 7.98498C4.05624 7.91462 4.15167 7.87509 4.25119 7.87509C4.3507 7.87509 4.44613 7.91462 4.5165 7.98498L6.50118 9.97014L8.48587 7.98498C8.5207 7.95012 8.56206 7.92246 8.60758 7.90358C8.65311 7.88471 8.7019 7.875 8.75118 7.875C8.80047 7.875 8.84926 7.88471 8.89479 7.90358C8.94031 7.92246 8.98167 7.95012 9.0165 7.98498ZM4.5165 4.01561L6.50118 2.03045L8.48587 4.01561C8.55624 4.08597 8.65167 4.1255 8.75118 4.1255C8.8507 4.1255 8.94613 4.08597 9.0165 4.01561C9.08686 3.94524 9.12639 3.84981 9.12639 3.7503C9.12639 3.65078 9.08686 3.55535 9.0165 3.48498L6.7665 1.23498C6.73167 1.20012 6.69031 1.17246 6.64479 1.15359C6.59926 1.13471 6.55047 1.125 6.50118 1.125C6.4519 1.125 6.40311 1.13471 6.35758 1.15359C6.31206 1.17246 6.2707 1.20012 6.23587 1.23498L3.98587 3.48498C3.91551 3.55535 3.87598 3.65078 3.87598 3.7503C3.87598 3.84981 3.91551 3.94524 3.98587 4.01561C4.05624 4.08597 4.15167 4.1255 4.25119 4.1255C4.3507 4.1255 4.44613 4.08597 4.5165 4.01561Z" fill="#141414"/>
</svg>
