<svg width="20" height="20" viewBox="0 0 20 20" fill="none" xmlns="http://www.w3.org/2000/svg">
<path d="M16.568 9.43244C16.6423 9.50674 16.7013 9.59497 16.7416 9.69209C16.7819 9.7892 16.8026 9.8933 16.8026 9.99844C16.8026 10.1036 16.7819 10.2077 16.7416 10.3048C16.7013 10.4019 16.6423 10.4901 16.568 10.5644L9.36795 17.7644C9.29363 17.8388 9.20539 17.8977 9.10827 17.938C9.01116 17.9782 8.90707 17.9989 8.80195 17.9989C8.69684 17.9989 8.59275 17.9782 8.49564 17.938C8.39852 17.8977 8.31028 17.8388 8.23595 17.7644C8.16162 17.6901 8.10266 17.6019 8.06244 17.5048C8.02221 17.4076 8.00151 17.3036 8.00151 17.1984C8.00151 17.0933 8.02221 16.9892 8.06244 16.8921C8.10266 16.795 8.16162 16.7068 8.23595 16.6324L14.071 10.7984H0.801953C0.58978 10.7984 0.386297 10.7142 0.236268 10.5641C0.0862386 10.4141 0.00195313 10.2106 0.00195312 9.99844C0.00195312 9.78626 0.0862386 9.58278 0.236268 9.43275C0.386297 9.28272 0.58978 9.19844 0.801953 9.19844H14.071L8.23595 3.36444C8.08584 3.21432 8.00151 3.01073 8.00151 2.79844C8.00151 2.58615 8.08584 2.38255 8.23595 2.23244C8.38607 2.08232 8.58966 1.99799 8.80195 1.99799C9.01424 1.99799 9.21784 2.08232 9.36795 2.23244L16.568 9.43244ZM19.202 0.398438C18.9898 0.398438 18.7863 0.482723 18.6363 0.632752C18.4862 0.782781 18.402 0.986264 18.402 1.19844V18.7984C18.402 19.0106 18.4862 19.2141 18.6363 19.3641C18.7863 19.5142 18.9898 19.5984 19.202 19.5984C19.4141 19.5984 19.6176 19.5142 19.7676 19.3641C19.9177 19.2141 20.002 19.0106 20.002 18.7984V1.19844C20.002 0.986264 19.9177 0.782781 19.7676 0.632752C19.6176 0.482723 19.4141 0.398438 19.202 0.398438Z" fill="#141414"/>
</svg>
