<svg width="28" height="27" viewBox="0 0 28 27" fill="none" xmlns="http://www.w3.org/2000/svg">
<path d="M26.5961 12.3398L25.1196 8.64844C24.9942 8.33595 24.7779 8.06832 24.4986 7.88026C24.2194 7.6922 23.89 7.59238 23.5534 7.59375H19.9062V6.75C19.9062 6.52622 19.8174 6.31161 19.6591 6.15338C19.5009 5.99515 19.2863 5.90625 19.0625 5.90625H3.03125C2.5837 5.90625 2.15447 6.08404 1.83801 6.40051C1.52154 6.71697 1.34375 7.1462 1.34375 7.59375V19.4063C1.34375 19.8538 1.52154 20.283 1.83801 20.5995C2.15447 20.916 2.5837 21.0938 3.03125 21.0938H4.82422C5.0101 21.8197 5.43231 22.4632 6.02429 22.9227C6.61628 23.3822 7.34436 23.6316 8.09375 23.6316C8.84314 23.6316 9.57122 23.3822 10.1632 22.9227C10.7552 22.4632 11.1774 21.8197 11.3633 21.0938H16.6367C16.8226 21.8197 17.2448 22.4632 17.8368 22.9227C18.4288 23.3822 19.1569 23.6316 19.9062 23.6316C20.6556 23.6316 21.3837 23.3822 21.9757 22.9227C22.5677 22.4632 22.9899 21.8197 23.1758 21.0938H24.9688C25.4163 21.0938 25.8455 20.916 26.162 20.5995C26.4785 20.283 26.6562 19.8538 26.6562 19.4063V12.6563C26.6564 12.5479 26.636 12.4406 26.5961 12.3398ZM8.09375 21.9375C7.75999 21.9375 7.43373 21.8385 7.15623 21.6531C6.87872 21.4677 6.66243 21.2041 6.5347 20.8958C6.40698 20.5874 6.37356 20.2481 6.43867 19.9208C6.50379 19.5934 6.66451 19.2928 6.90051 19.0568C7.13651 18.8208 7.43719 18.66 7.76453 18.5949C8.09188 18.5298 8.43118 18.5632 8.73953 18.691C9.04788 18.8187 9.31143 19.035 9.49685 19.3125C9.68228 19.59 9.78125 19.9162 9.78125 20.25C9.78125 20.6976 9.60346 21.1268 9.28699 21.4432C8.97052 21.7597 8.5413 21.9375 8.09375 21.9375ZM3.03125 14.3438V7.59375H18.2188V14.3438H3.03125ZM19.9062 21.9375C19.5725 21.9375 19.2462 21.8385 18.9687 21.6531C18.6912 21.4677 18.4749 21.2041 18.3472 20.8958C18.2195 20.5874 18.1861 20.2481 18.2512 19.9208C18.3163 19.5934 18.477 19.2928 18.713 19.0568C18.949 18.8208 19.2497 18.66 19.577 18.5949C19.9044 18.5298 20.2437 18.5632 20.552 18.691C20.8604 18.8187 21.1239 19.035 21.3094 19.3125C21.4948 19.59 21.5938 19.9162 21.5938 20.25C21.5938 20.6976 21.416 21.1268 21.0995 21.4432C20.783 21.7597 20.3538 21.9375 19.9062 21.9375ZM19.9062 11.8125V9.28125H23.5534L24.5659 11.8125H19.9062Z" fill="#141414"/>
</svg>
