<svg width="28" height="27" viewBox="0 0 28 27" fill="none" xmlns="http://www.w3.org/2000/svg">
<path d="M17.8465 20.6315C17.9295 20.7588 17.9766 20.9062 17.9828 21.058C17.989 21.2099 17.9541 21.3606 17.8817 21.4943C17.8093 21.6279 17.7021 21.7395 17.5716 21.8173C17.441 21.8951 17.2918 21.9361 17.1399 21.9362H1.579C1.42701 21.9361 1.27786 21.8951 1.14728 21.8173C1.01671 21.7395 0.909573 21.6279 0.837189 21.4943C0.764804 21.3606 0.729861 21.2099 0.736052 21.058C0.742242 20.9062 0.789336 20.7588 0.872358 20.6315C2.06005 18.8034 3.80702 17.4082 5.85259 16.6543C4.72175 15.9014 3.86321 14.8047 3.40392 13.5261C2.94463 12.2476 2.90898 10.8552 3.30224 9.55487C3.6955 8.25452 4.49679 7.11524 5.58763 6.30551C6.67846 5.49578 8.00091 5.05859 9.35943 5.05859C10.7179 5.05859 12.0404 5.49578 13.1312 6.30551C14.2221 7.11524 15.0234 8.25452 15.4166 9.55487C15.8099 10.8552 15.7742 12.2476 15.3149 13.5261C14.8556 14.8047 13.9971 15.9014 12.8663 16.6543C14.9118 17.4082 16.6588 18.8034 17.8465 20.6315ZM27.1183 20.6157C25.9303 18.7952 24.1872 17.4061 22.1475 16.6543C23.4825 15.755 24.4247 14.3808 24.7822 12.8114C25.1397 11.2419 24.8857 9.59524 24.0719 8.20648C23.2581 6.81771 21.9457 5.79126 20.4017 5.33604C18.8578 4.88083 17.1984 5.03108 15.7614 5.7562C15.7064 5.78457 15.6584 5.82468 15.6207 5.87368C15.5829 5.92268 15.5564 5.97938 15.5431 6.03976C15.5297 6.10014 15.5297 6.16272 15.5432 6.22307C15.5567 6.28343 15.5833 6.34008 15.6211 6.38901C16.6897 7.72194 17.3034 9.36201 17.3723 11.069C17.4412 12.776 16.9616 14.4602 16.004 15.8749C15.9421 15.9673 15.9192 16.0805 15.9403 16.1897C15.9615 16.299 16.0249 16.3954 16.1168 16.4581C17.3654 17.3296 18.4344 18.4336 19.2651 19.7097C19.6001 20.2228 19.7369 20.8402 19.65 21.4468C19.6402 21.5071 19.6437 21.5689 19.6601 21.6277C19.6766 21.6866 19.7056 21.7412 19.7452 21.7878C19.7848 21.8343 19.8341 21.8717 19.8896 21.8973C19.9451 21.9229 20.0055 21.9362 20.0666 21.9362H26.4264C26.6122 21.9362 26.7928 21.8749 26.9402 21.7619C27.0876 21.6488 27.1936 21.4902 27.2417 21.3107C27.271 21.1927 27.2752 21.0698 27.2539 20.9501C27.2326 20.8303 27.1864 20.7164 27.1183 20.6157Z" fill="#141414"/>
</svg>
